HIERARCHY
ROOT Root
{
	OFFSET 0.00000 0.00000 0.00000
	CHANNELS 6 Xposition Yposition Zposition Zrotation Xrotation Yrotation
	JOINT Hips
	{
		OFFSET 0 0 0	
		CHANNELS 3 Zrotation Xrotation Yrotation
		JOINT Spine
		{
			OFFSET 0 4 0	
			CHANNELS 3 Zrotation Xrotation Yrotation
			JOINT Spine1
			{
				OFFSET 0 19.4 0	
				CHANNELS 3 Zrotation Xrotation Yrotation
				JOINT Spine2
				{
					OFFSET 0 16.6 0	
					CHANNELS 3 Zrotation Xrotation Yrotation
					JOINT LeftCollar
					{
						OFFSET 0 10 0	
						CHANNELS 3 Zrotation Xrotation Yrotation
						JOINT LeftArm
						{
							OFFSET 15.6 -2 3	
							CHANNELS 3 Zrotation Xrotation Yrotation
							JOINT LeftForeArm
							{
								OFFSET 3.5 -27 -1	
								CHANNELS 3 Zrotation Xrotation Yrotation
								JOINT LeftHand
								{
									OFFSET 1 -27 1	
									CHANNELS 3 Zrotation Xrotation Yrotation
									End Site
									{
										OFFSET 0 -15 0
									}
								}
							}
						}
					}
					JOINT RightCollar
					{
						OFFSET 0 10 0	
						CHANNELS 3 Zrotation Xrotation Yrotation
						JOINT RightArm
						{
							OFFSET -15.6 -2 3	
							CHANNELS 3 Zrotation Xrotation Yrotation
							JOINT RightForeArm
							{
								OFFSET -3.5 -27 -1	
								CHANNELS 3 Zrotation Xrotation Yrotation
								JOINT RightHand
								{
									OFFSET -1 -27 1	
									CHANNELS 3 Zrotation Xrotation Yrotation
									End Site
									{
										OFFSET 0 -15 0
									}
								}
							}
						}
					}
					JOINT Neck
					{
						OFFSET 0 10 0	
						CHANNELS 3 Zrotation Xrotation Yrotation
						JOINT Head
						{
							OFFSET 0 12.7 3	
							CHANNELS 3 Zrotation Xrotation Yrotation
							End Site
							{
								OFFSET 0 12.7 3
							}
						}
					}
				}
			}
		}
	}
	JOINT LeftHip
	{
		OFFSET 0 0 0	
		CHANNELS 3 Zrotation Xrotation Yrotation
		JOINT LeftUpLeg
		{
			OFFSET 8.8 -6 0	
			CHANNELS 3 Zrotation Xrotation Yrotation
			JOINT LeftLeg
			{
				OFFSET 0 -39 2	
				CHANNELS 3 Zrotation Xrotation Yrotation
				JOINT LeftFoot
				{
					OFFSET 0 -43 -2	
					CHANNELS 3 Zrotation Xrotation Yrotation
					JOINT LeftFootFront
					{
						OFFSET 0 -7 8.5	
						CHANNELS 3 Zrotation Xrotation Yrotation
						End Site
						{
							OFFSET 0 -0.5 9
						}
					}
				}
				JOINT LeftHeel
				{
					OFFSET 0 -43 -2	
					CHANNELS 3 Zrotation Xrotation Yrotation
					End Site
					{
						OFFSET 0 -7.5 -5
					}
				}
			}
		}
	}
	JOINT RightHip
	{
		OFFSET 0 0 0	
		CHANNELS 3 Zrotation Xrotation Yrotation
		JOINT RightUpLeg
		{
			OFFSET -8.8 -6 0	
			CHANNELS 3 Zrotation Xrotation Yrotation
			JOINT RightLeg
			{
				OFFSET 0 -39 2	
				CHANNELS 3 Zrotation Xrotation Yrotation
				JOINT RightFoot
				{
					OFFSET 0 -43 -2	
					CHANNELS 3 Zrotation Xrotation Yrotation
					JOINT RightFootFront
					{
						OFFSET 0 -7 8.5	
						CHANNELS 3 Zrotation Xrotation Yrotation
						End Site
						{
							OFFSET 0 -0.5 9
						}
					}
				}
				JOINT RightHeel
				{
					OFFSET 0 -43 -2	
					CHANNELS 3 Zrotation Xrotation Yrotation
					End Site
					{
						OFFSET 0 -7.5 -5
					}
				}
			}
		}
	}
}
MOTION
Frames: 27
Frame Time: 0.05
0 95.5 0 -0 0 -0 -0 0 -0 -0 0 -0 -15.485 11.263 47.331 -0 0 -0 -0 0 -0 -22.101 -51.379 -46.673 171.66 -81.117 -159.25 -0 0 -0 -0 0 -0 -10.393 -36.792 7.9674 -5.7548 -66.467 -46.307 -0 0 -0 -9.1181 -9.02 14.318 -9.1181 -9.02 14.318 -0 0 -0 -0 0 -0 -0 0 -0 -0 0 -0 -0 0 -0 -0 0 -0 -0 0 -0 -0 0 -0 -0 0 -0 -0 0 -0 -0 0 -0 -0 0 -0 
0 95.5 0 -0 0 -0 -0 0 -0 -0 0 -0 -15.691 11.065 47.091 -0 0 -0 -0 0 -0 -21.987 -51.295 -47.376 173.9 -81.759 -156.94 -0 0 -0 -0 0 -0 -10.963 -33.938 6.9555 2.3495 -66.748 -40.916 -0 0 -0 -8.9746 -9.1943 14.443 -8.9746 -9.1943 14.443 -0 0 -0 -0 0 -0 -0 0 -0 -0 0 -0 -0 0 -0 -0 0 -0 -0 0 -0 -0 0 -0 -0 0 -0 -0 0 -0 -0 0 -0 -0 0 -0 
0 95.5 0 -0 0 -0 -0 0 -0 -0 0 -0 -15.698 10.76 46.921 -0 0 -0 -0 0 -0 -21.915 -50.964 -48.174 176.1 -82.4 -154.63 -0 0 -0 -0 0 -0 -11.419 -31.403 6.3031 9.9853 -66.647 -36.065 -0 0 -0 -8.7043 -9.2732 14.519 -8.7043 -9.2732 14.519 -0 0 -0 -0 0 -0 -0 0 -0 -0 0 -0 -0 0 -0 -0 0 -0 -0 0 -0 -0 0 -0 -0 0 -0 -0 0 -0 -0 0 -0 -0 0 -0 
0 95.5 0 -0 0 -0 -0 0 -0 -0 0 -0 -15.605 10.64 46.559 -0 0 -0 -0 0 -0 -21.775 -50.768 -48.646 177.64 -82.933 -152.95 -0 0 -0 -0 0 -0 -11.567 -30.068 6.5544 16.043 -66.83 -33.522 -0 0 -0 -8.2919 -9.4777 14.583 -8.2919 -9.4777 14.583 -0 0 -0 -0 0 -0 -0 0 -0 -0 0 -0 -0 0 -0 -0 0 -0 -0 0 -0 -0 0 -0 -0 0 -0 -0 0 -0 -0 0 -0 -0 0 -0 
0 95.5 0 -0 0 -0 -0 0 -0 -0 0 -0 -15.592 10.655 46.43 -0 0 -0 -0 0 -0 -21.949 -50.654 -49.102 178.44 -83.212 -152.06 -0 0 -0 -0 0 -0 -11.626 -29.091 6.7949 21.29 -66.991 -32.577 -0 0 -0 -7.7677 -10.083 14.387 -7.7677 -10.083 14.387 -0 0 -0 -0 0 -0 -0 0 -0 -0 0 -0 -0 0 -0 -0 0 -0 -0 0 -0 -0 0 -0 -0 0 -0 -0 0 -0 -0 0 -0 -0 0 -0 
0 95.5 0 -0 0 -0 -0 0 -0 -0 0 -0 -15.269 10.395 46.328 -0 0 -0 -0 0 -0 -22.193 -50.094 -48.982 -178.64 -83.428 -149.12 -0 0 -0 -0 0 -0 -11.531 -27.796 7.0258 24.191 -67.471 -32.759 -0 0 -0 -7.1855 -10.775 14.198 -7.1855 -10.775 14.198 -0 0 -0 -0 0 -0 -0 0 -0 -0 0 -0 -0 0 -0 -0 0 -0 -0 0 -0 -0 0 -0 -0 0 -0 -0 0 -0 -0 0 -0 -0 0 -0 
0 95.5 0 -0 0 -0 -0 0 -0 -0 0 -0 -14.829 10.13 46.201 -0 0 -0 -0 0 -0 -22.088 -49.612 -48.638 -178.84 -83.687 -149.13 -0 0 -0 -0 0 -0 -11.561 -26.525 7.0935 29.278 -67.276 -32.317 -0 0 -0 -6.6633 -11.41 14.129 -6.6633 -11.41 14.129 -0 0 -0 -0 0 -0 -0 0 -0 -0 0 -0 -0 0 -0 -0 0 -0 -0 0 -0 -0 0 -0 -0 0 -0 -0 0 -0 -0 0 -0 -0 0 -0 
0 95.5 0 -0 0 -0 -0 0 -0 -0 0 -0 -14.631 9.937 46.315 -0 0 -0 -0 0 -0 -22.001 -49.292 -48.757 -178.62 -83.982 -148.8 -0 0 -0 -0 0 -0 -11.822 -25.494 6.8023 35.959 -66.875 -31.536 -0 0 -0 -6.2812 -11.915 13.967 -6.2812 -11.915 13.967 -0 0 -0 -0 0 -0 -0 0 -0 -0 0 -0 -0 0 -0 -0 0 -0 -0 0 -0 -0 0 -0 -0 0 -0 -0 0 -0 -0 0 -0 -0 0 -0 
0 95.5 0 -0 0 -0 -0 0 -0 -0 0 -0 -14.766 10.023 46.449 -0 0 -0 -0 0 -0 -21.854 -49.308 -49.043 -177.43 -84.456 -147.32 -0 0 -0 -0 0 -0 -12.287 -24.418 6.6742 45.336 -67.878 -29.732 -0 0 -0 -6.216 -12.379 13.549 -6.216 -12.379 13.549 -0 0 -0 -0 0 -0 -0 0 -0 -0 0 -0 -0 0 -0 -0 0 -0 -0 0 -0 -0 0 -0 -0 0 -0 -0 0 -0 -0 0 -0 -0 0 -0 
0 95.5 0 -0 0 -0 -0 0 -0 -0 0 -0 -14.903 10.12 46.56 -0 0 -0 -0 0 -0 -21.605 -49.26 -49.244 -173.42 -85.245 -142.89 -0 0 -0 -0 0 -0 -12.371 -24.33 6.7023 54.662 -68.741 -27.966 -0 0 -0 -6.4894 -12.757 12.25 -6.4894 -12.757 12.25 -0 0 -0 -0 0 -0 -0 0 -0 -0 0 -0 -0 0 -0 -0 0 -0 -0 0 -0 -0 0 -0 -0 0 -0 -0 0 -0 -0 0 -0 -0 0 -0 
0 95.5 0 -0 0 -0 -0 0 -0 -0 0 -0 -15.04 10.213 46.626 -0 0 -0 -0 0 -0 -21.343 -49.182 -49.41 -161.56 -86.42 -130.24 -0 0 -0 -0 0 -0 -12.262 -24.704 6.8614 62.06 -69.582 -25.286 -0 0 -0 -6.9262 -13.279 9.6748 -6.9263 -13.279 9.6748 -0 0 -0 -0 0 -0 -0 0 -0 -0 0 -0 -0 0 -0 -0 0 -0 -0 0 -0 -0 0 -0 -0 0 -0 -0 0 -0 -0 0 -0 -0 0 -0 
0 95.5 0 -0 0 -0 -0 0 -0 -0 0 -0 -14.83 10.176 46.597 -0 0 -0 -0 0 -0 -21.038 -48.765 -49.514 -127.39 -87.463 -94.892 -0 0 -0 -0 0 -0 -12.157 -25.28 7.2799 65.494 -71.275 -22.737 -0 0 -0 -7.4267 -13.796 6.6642 -7.4267 -13.796 6.6642 -0 0 -0 -0 0 -0 -0 0 -0 -0 0 -0 -0 0 -0 -0 0 -0 -0 0 -0 -0 0 -0 -0 0 -0 -0 0 -0 -0 0 -0 -0 0 -0 
0 95.5 0 -0 0 -0 -0 0 -0 -0 0 -0 -14.816 10.325 46.704 -0 0 -0 -0 0 -0 -20.831 -48.518 -50.14 -80.018 -86.772 -45.891 -0 0 -0 -0 0 -0 -12.17 -26.862 7.1653 69.286 -73.021 -18.303 -0 0 -0 -7.7571 -14.465 4.208 -7.7571 -14.465 4.208 -0 0 -0 -0 0 -0 -0 0 -0 -0 0 -0 -0 0 -0 -0 0 -0 -0 0 -0 -0 0 -0 -0 0 -0 -0 0 -0 -0 0 -0 -0 0 -0 
0 95.5 0 -0 0 -0 -0 0 -0 -0 0 -0 -14.901 10.405 46.847 -0 0 -0 -0 0 -0 -20.446 -48.268 -50.964 -59.759 -84.669 -23.668 -0 0 -0 -0 0 -0 -12.275 -29.215 6.8133 73.807 -74.627 -11.879 -0 0 -0 -7.7454 -15.092 2.7333 -7.7454 -15.092 2.7333 -0 0 -0 -0 0 -0 -0 0 -0 -0 0 -0 -0 0 -0 -0 0 -0 -0 0 -0 -0 0 -0 -0 0 -0 -0 0 -0 -0 0 -0 -0 0 -0 
0 95.5 0 -0 0 -0 -0 0 -0 -0 0 -0 -14.922 10.517 46.883 -0 0 -0 -0 0 -0 -20.081 -48.025 -51.67 -53.644 -82.112 -15.121 -0 0 -0 -0 0 -0 -12.717 -32.158 6.4609 79.02 -75.782 -5.3524 -0 0 -0 -7.4962 -15.581 1.9914 -7.4962 -15.581 1.9914 -0 0 -0 -0 0 -0 -0 0 -0 -0 0 -0 -0 0 -0 -0 0 -0 -0 0 -0 -0 0 -0 -0 0 -0 -0 0 -0 -0 0 -0 -0 0 -0 
0 95.5 0 -0 0 -0 -0 0 -0 -0 0 -0 -15.027 10.559 46.866 -0 0 -0 -0 0 -0 -19.702 -47.869 -52.224 -51.997 -79.73 -11.144 -0 0 -0 -0 0 -0 -13.237 -35.392 5.9958 85.133 -76.249 1.1482 -0 0 -0 -7.0685 -15.959 1.5183 -7.0685 -15.959 1.5183 -0 0 -0 -0 0 -0 -0 0 -0 -0 0 -0 -0 0 -0 -0 0 -0 -0 0 -0 -0 0 -0 -0 0 -0 -0 0 -0 -0 0 -0 -0 0 -0 
0 95.5 0 -0 0 -0 -0 0 -0 -0 0 -0 -15.069 10.498 46.791 -0 0 -0 -0 0 -0 -19.411 -47.655 -52.53 -52.176 -78.189 -9.968 -0 0 -0 -0 0 -0 -13.699 -38.512 5.5022 91.739 -76.073 7.8734 -0 0 -0 -6.6438 -16.213 1.0863 -6.6438 -16.213 1.0863 -0 0 -0 -0 0 -0 -0 0 -0 -0 0 -0 -0 0 -0 -0 0 -0 -0 0 -0 -0 0 -0 -0 0 -0 -0 0 -0 -0 0 -0 -0 0 -0 
0 95.5 0 -0 0 -0 -0 0 -0 -0 0 -0 -15.129 10.322 46.683 -0 0 -0 -0 0 -0 -19.136 -47.451 -52.638 -55.234 -77.622 -12.295 -0 0 -0 -0 0 -0 -14.008 -41.423 5.0714 97.748 -75.443 14.027 -0 0 -0 -6.1785 -16.4 0.66809 -6.1785 -16.4 0.66808 -0 0 -0 -0 0 -0 -0 0 -0 -0 0 -0 -0 0 -0 -0 0 -0 -0 0 -0 -0 0 -0 -0 0 -0 -0 0 -0 -0 0 -0 -0 0 -0 
0 95.5 0 -0 0 -0 -0 0 -0 -0 0 -0 -15.308 10.168 46.695 -0 0 -0 -0 0 -0 -19 -47.417 -52.959 -62.765 -77.43 -18.353 -0 0 -0 -0 0 -0 -14.345 -44.105 4.4293 102.85 -74.518 19.519 -0 0 -0 -5.7103 -16.62 0.36045 -5.7103 -16.62 0.36045 -0 0 -0 -0 0 -0 -0 0 -0 -0 0 -0 -0 0 -0 -0 0 -0 -0 0 -0 -0 0 -0 -0 0 -0 -0 0 -0 -0 0 -0 -0 0 -0 
0 95.5 0 -0 0 -0 -0 0 -0 -0 0 -0 -15.433 10.108 46.728 -0 0 -0 -0 0 -0 -18.976 -47.411 -53.407 -73.509 -77.39 -27.118 -0 0 -0 -0 0 -0 -14.85 -46.41 3.5861 106.98 -73.617 24.257 -0 0 -0 -5.2881 -16.813 0.27286 -5.2881 -16.813 0.27286 -0 0 -0 -0 0 -0 -0 0 -0 -0 0 -0 -0 0 -0 -0 0 -0 -0 0 -0 -0 0 -0 -0 0 -0 -0 0 -0 -0 0 -0 -0 0 -0 
0 95.5 0 -0 0 -0 -0 0 -0 -0 0 -0 -15.609 9.9265 46.79 -0 0 -0 -0 0 -0 -18.638 -47.522 -53.963 -83.244 -77.396 -35.359 -0 0 -0 -0 0 -0 -15.259 -48.287 2.508 110.36 -72.587 28.251 -0 0 -0 -4.7397 -16.951 0.33744 -4.7397 -16.951 0.33744 -0 0 -0 -0 0 -0 -0 0 -0 -0 0 -0 -0 0 -0 -0 0 -0 -0 0 -0 -0 0 -0 -0 0 -0 -0 0 -0 -0 0 -0 -0 0 -0 
0 95.5 0 -0 0 -0 -0 0 -0 -0 0 -0 -15.809 9.6396 46.864 -0 0 -0 -0 0 -0 -18.2 -48.131 -54.66 -89.139 -77.418 -41.287 -0 0 -0 -0 0 -0 -15.595 -49.987 1.3632 112.62 -71.321 30.808 -0 0 -0 -4.0885 -17.047 0.50963 -4.0885 -17.047 0.50963 -0 0 -0 -0 0 -0 -0 0 -0 -0 0 -0 -0 0 -0 -0 0 -0 -0 0 -0 -0 0 -0 -0 0 -0 -0 0 -0 -0 0 -0 -0 0 -0 
0 95.5 0 -0 0 -0 -0 0 -0 -0 0 -0 -15.788 9.4919 46.982 -0 0 -0 -0 0 -0 -18.172 -49.265 -55.645 -92.048 -77.428 -44.792 -0 0 -0 -0 0 -0 -16.138 -51.578 0.45002 114.43 -70.477 33.524 -0 0 -0 -3.6603 -17.042 0.74951 -3.6603 -17.042 0.74951 -0 0 -0 -0 0 -0 -0 0 -0 -0 0 -0 -0 0 -0 -0 0 -0 -0 0 -0 -0 0 -0 -0 0 -0 -0 0 -0 -0 0 -0 -0 0 -0 
0 95.5 0 -0 0 -0 -0 0 -0 -0 0 -0 -15.454 9.5098 47.331 -0 0 -0 -0 0 -0 -18.64 -50.508 -56.946 -94.45 -77.572 -47.176 -0 0 -0 -0 0 -0 -17.012 -52.824 -0.43864 116.65 -70.199 37.138 -0 0 -0 -3.5403 -16.848 1.0034 -3.5403 -16.848 1.0034 -0 0 -0 -0 0 -0 -0 0 -0 -0 0 -0 -0 0 -0 -0 0 -0 -0 0 -0 -0 0 -0 -0 0 -0 -0 0 -0 -0 0 -0 -0 0 -0 
0 95.5 0 -0 0 -0 -0 0 -0 -0 0 -0 -15.108 9.6117 47.68 -0 0 -0 -0 0 -0 -19.267 -51.669 -57.875 -95.315 -77.39 -48.274 -0 0 -0 -0 0 -0 -17.692 -53.949 -1.1559 118.21 -69.832 40.117 -0 0 -0 -3.3901 -16.547 1.5451 -3.3901 -16.547 1.5451 -0 0 -0 -0 0 -0 -0 0 -0 -0 0 -0 -0 0 -0 -0 0 -0 -0 0 -0 -0 0 -0 -0 0 -0 -0 0 -0 -0 0 -0 -0 0 -0 
0 95.5 0 -0 0 -0 -0 0 -0 -0 0 -0 -14.793 9.723 47.966 -0 0 -0 -0 0 -0 -19.95 -52.568 -58.373 -95.454 -76.931 -48.833 -0 0 -0 -0 0 -0 -18.187 -55.092 -1.7404 118.68 -69.517 42.341 -0 0 -0 -3.1009 -16.144 2.7651 -3.1009 -16.144 2.7651 -0 0 -0 -0 0 -0 -0 0 -0 -0 0 -0 -0 0 -0 -0 0 -0 -0 0 -0 -0 0 -0 -0 0 -0 -0 0 -0 -0 0 -0 -0 0 -0 
0 95.5 0 -0 0 -0 -0 0 -0 -0 0 -0 -14.159 9.5823 48.142 -0 0 -0 -0 0 -0 -20.479 -52.729 -58.324 -96.009 -76.343 -49.639 -0 0 -0 -0 0 -0 -18.508 -55.868 -2.0175 118.5 -69.266 43.813 -0 0 -0 -2.7209 -15.548 4.7662 -2.7209 -15.548 4.7662 -0 0 -0 -0 0 -0 -0 0 -0 -0 0 -0 -0 0 -0 -0 0 -0 -0 0 -0 -0 0 -0 -0 0 -0 -0 0 -0 -0 0 -0 -0 0 -0 
